<svg xmlns="http://www.w3.org/2000/svg" xmlns:xlink="http://www.w3.org/1999/xlink" xmlns:serif="http://www.serif.com/" viewBox="0 0 64 80" version="1.1" xml:space="preserve" style="" x="0px" y="0px" fill-rule="evenodd" clip-rule="evenodd" stroke-linejoin="round" stroke-miterlimit="1.41421"><rect x="0" y="0" width="64" height="64" style="" fill="none"/><path d="M37.297,41c-0.905,1.412 -2.078,2.652 -3.447,3.619c-2.128,1.503 -4.727,2.341 -7.303,2.38c-0.054,0 -0.109,0.001 -0.163,0.001c-2.923,0.003 -5.845,0.003 -8.768,0c-2.753,-0.01 -5.501,-0.917 -7.719,-2.565c-2.002,-1.486 -3.558,-3.556 -4.429,-5.893c-0.053,-0.142 -0.103,-0.286 -0.152,-0.43l-1.252,-3.759c-0.157,-0.493 0.102,-1.078 0.594,-1.277c0.121,-0.049 0.251,-0.074 0.381,-0.076l33.922,0c0.008,0 0.015,0 0.023,0c0.515,0.023 0.969,0.458 1.001,0.969c0.008,0.129 -0.01,0.26 -0.048,0.383c-0.072,0.216 -0.144,0.432 -0.216,0.648c6.097,-0.002 12.194,-0.02 18.291,0c0.821,0.008 1.614,0.563 1.883,1.36c0.068,0.202 0.103,0.416 0.105,0.628c0.002,0.675 0.002,1.349 0,2.024c-0.009,1.004 -0.862,1.94 -1.913,1.986c-0.029,0.001 -0.057,0.002 -0.085,0.002l-20.705,0Zm0.316,-6l-31.226,0c0.279,0.835 0.556,1.67 0.835,2.505c0.929,2.751 2.979,5.093 5.582,6.371c1.493,0.733 3.162,1.118 4.817,1.124c2.919,0.003 5.839,0.003 8.758,0c2.895,-0.011 5.764,-1.206 7.809,-3.28c1.174,-1.192 2.065,-2.649 2.599,-4.242l0.826,-2.478Zm1.442,2c-0.127,0.381 -0.254,0.761 -0.382,1.142c-0.098,0.29 -0.206,0.577 -0.325,0.86c6.551,0.016 13.103,0.14 19.652,-0.002c0.014,-0.667 0.014,-1.333 0,-2c-0.001,0 -0.001,0 -0.002,0l-18.943,0Zm-27.881,-19.985c0.149,0.04 0.191,0.041 0.326,0.119c0.202,0.117 0.36,0.305 0.44,0.524c0.053,0.147 0.047,0.188 0.06,0.342c0,1.336 -0.004,2.671 0,4.007c0.005,0.525 0.465,0.991 1.019,0.993c0,0 0.187,0.003 0.351,0.023c1.12,0.139 2.131,0.962 2.484,2.052c0.064,0.198 0.108,0.403 0.129,0.61c0.011,0.104 0.017,0.209 0.017,0.313l0,4.002c-0.005,0.058 -0.005,0.116 -0.015,0.174c-0.081,0.458 -0.517,0.826 -0.985,0.826c-0.466,0 -0.903,-0.365 -0.985,-0.826c-0.01,-0.058 -0.01,-0.116 -0.015,-0.174c0,-1.335 0.004,-2.671 0,-4.006c-0.005,-0.525 -0.478,-0.992 -1.019,-0.994c0,0 -0.182,-0.002 -0.343,-0.022c-1.114,-0.134 -2.118,-0.946 -2.48,-2.016c-0.105,-0.309 -0.157,-0.636 -0.158,-0.96l0,-4.002c0.013,-0.154 0.007,-0.195 0.06,-0.342c0.1,-0.274 0.324,-0.498 0.598,-0.598c0.147,-0.053 0.188,-0.047 0.342,-0.06c0.058,0.005 0.116,0.01 0.174,0.015Zm18,0c0.149,0.04 0.191,0.041 0.326,0.119c0.202,0.117 0.36,0.305 0.44,0.524c0.053,0.147 0.047,0.188 0.06,0.342c0,1.336 -0.004,2.671 0,4.007c0.005,0.524 0.465,0.991 1.019,0.993c0,0 0.187,0.003 0.351,0.023c1.12,0.139 2.13,0.96 2.484,2.052c0.096,0.298 0.145,0.612 0.146,0.924l0,4.001c-0.005,0.058 -0.005,0.116 -0.015,0.174c-0.081,0.458 -0.517,0.826 -0.985,0.826c-0.466,0 -0.903,-0.365 -0.985,-0.826c-0.01,-0.058 -0.01,-0.116 -0.015,-0.174c0,-1.335 0.004,-2.671 0,-4.006c-0.005,-0.524 -0.478,-0.992 -1.019,-0.994c0,0 -0.182,-0.002 -0.343,-0.022c-1.112,-0.134 -2.117,-0.943 -2.48,-2.016c-0.105,-0.309 -0.157,-0.634 -0.158,-0.96l0,-4.002c0.013,-0.154 0.007,-0.195 0.06,-0.342c0.1,-0.274 0.324,-0.498 0.598,-0.598c0.147,-0.053 0.188,-0.047 0.342,-0.06c0.058,0.005 0.116,0.01 0.174,0.015Zm-9,0c0.149,0.04 0.191,0.041 0.326,0.119c0.202,0.117 0.36,0.305 0.44,0.524c0.053,0.147 0.047,0.188 0.06,0.342c0,1.336 -0.004,2.671 0,4.007c0.005,0.525 0.465,0.991 1.019,0.993c0,0 0.187,0.003 0.351,0.023c1.12,0.139 2.131,0.962 2.484,2.052c0.064,0.198 0.108,0.403 0.129,0.61c0.011,0.104 0.017,0.209 0.017,0.313l0,4.002c-0.005,0.058 -0.005,0.116 -0.015,0.174c-0.081,0.458 -0.517,0.826 -0.985,0.826c-0.466,0 -0.903,-0.365 -0.985,-0.826c-0.01,-0.058 -0.01,-0.116 -0.015,-0.174c0,-1.335 0.004,-2.671 0,-4.006c-0.005,-0.525 -0.478,-0.992 -1.019,-0.994c0,0 -0.182,-0.002 -0.343,-0.022c-1.114,-0.134 -2.118,-0.946 -2.48,-2.016c-0.105,-0.309 -0.157,-0.636 -0.158,-0.96l0,-4.002c0.013,-0.154 0.007,-0.195 0.06,-0.342c0.1,-0.274 0.324,-0.498 0.598,-0.598c0.147,-0.053 0.188,-0.047 0.342,-0.06c0.058,0.005 0.116,0.01 0.174,0.015Z" style="" fill-rule="nonzero"/><text x="0" y="79" fill="#000000" font-size="5px" font-weight="bold" font-family="'Helvetica Neue', Helvetica, Arial-Unicode, Arial, Sans-serif">Created by Bartama Graphic</text><text x="0" y="84" fill="#000000" font-size="5px" font-weight="bold" font-family="'Helvetica Neue', Helvetica, Arial-Unicode, Arial, Sans-serif">from the Noun Project</text></svg>