<svg xmlns="http://www.w3.org/2000/svg" xmlns:xlink="http://www.w3.org/1999/xlink" version="1.1" x="0px" y="0px" viewBox="-589 311 100 125" style="enable-background:new -589 311 100 100;" xml:space="preserve"><g><path d="M-521.7,336.7c3.7,0,6.7-3,6.7-6.7s-3-6.7-6.7-6.7c-3.7,0-6.7,3-6.7,6.7S-525.3,336.7-521.7,336.7z M-502.9,334.6   L-502.9,334.6c0.1,0-0.2-0.5-0.3-1.2c-0.1-0.4-0.1-0.8-0.1-1.2c0-0.2,0.1-0.4,0.1-0.6c0-0.1,0.1-0.2,0.1-0.3l0.2-0.3   c0.1-0.1,0.1-0.2,0.2-0.3c0.1-0.1,0.2-0.3,0.2-0.4c0.1-0.3,0.1-0.6,0.1-0.8c0-0.5-0.2-1-0.4-1.4c-0.4-0.7-0.9-1-0.9-1l-0.1,0   c0,0,0.1,0.5,0.3,1.2c0.1,0.4,0.1,0.8,0.1,1.2c0,0.2,0,0.4,0,0.6c0,0.1,0,0.2-0.1,0.3c0,0.1-0.1,0.2-0.2,0.3l-0.2,0.4   c-0.1,0.1-0.1,0.3-0.1,0.4c-0.1,0.3-0.1,0.5-0.1,0.8c0,0.5,0.2,1,0.3,1.3C-503.3,334.2-502.9,334.6-502.9,334.6z M-509.2,335.8   c0.4,0.4,0.7,0.5,0.7,0.5l0-0.1c0,0-0.3-0.1-0.5-0.5c-0.1-0.2-0.1-0.4,0-0.7c0.1-0.1,0.1-0.2,0.2-0.3c0.1-0.1,0.2-0.2,0.3-0.4   c0.1-0.1,0.2-0.2,0.3-0.4c0.1-0.2,0.2-0.3,0.2-0.6c0-0.2,0-0.4-0.1-0.6c-0.1-0.2-0.2-0.3-0.3-0.4c-0.2-0.2-0.5-0.3-0.6-0.3   c-0.2,0-0.3,0-0.3,0l0,0.1c0,0,0,0.1,0.1,0.2c0.1,0.1,0.2,0.3,0.2,0.4c0.1,0.2,0.1,0.3,0,0.5c0,0.1,0,0.2-0.1,0.3   c0,0.1-0.1,0.2-0.2,0.4c-0.1,0.1-0.2,0.3-0.2,0.4c-0.1,0.2-0.1,0.3-0.2,0.5c0,0.2,0,0.3,0,0.5   C-509.3,335.5-509.3,335.7-509.2,335.8z M-493.9,346.1l-0.2,0c-0.3-5.2-4.7-9.2-10.1-9.5c0,0,0-0.1,0-0.1c0-0.8-0.7-1.3-1.5-1.3   c-0.8,0-1.3,0.7-1.3,1.5c0,0,0,0.1,0,0.1c-5.3,1-9.1,5.5-8.7,10.8v0l-0.2,0c-0.7,0-1.2,0.6-1.1,1.3c0,0.7,0.6,1.2,1.3,1.1l21.8-1.4   c0.7,0,1.2-0.6,1.1-1.3C-492.7,346.6-493.3,346.1-493.9,346.1z M-497.4,344.4c-0.2,0-0.4-0.2-0.4-0.4c0-2.2-1.8-4-4-4   c-0.2,0-0.4-0.2-0.4-0.4c0-0.2,0.2-0.4,0.4-0.4c2.7,0,4.9,2.2,4.9,4.9C-497,344.2-497.2,344.4-497.4,344.4z M-506.5,350.6l-13,0.8   l-8.2-12.6l-0.1-0.1c-0.1-0.1-0.1-0.2-0.2-0.3c-0.1-0.1-0.2-0.3-0.3-0.3c-0.1-0.1-0.2-0.1-0.3-0.2c-0.1-0.1-0.3-0.2-0.3-0.3   c-0.1-0.1-0.2-0.1-0.3-0.2c-0.2-0.1-0.3-0.1-0.4-0.2c-0.1,0-16-4.3-16-4.3c-1-0.3-2-0.1-2.9,0.5l-12.3,8.6c-1.6,1.1-2,3.2-0.9,4.8   c1.1,1.6,3.2,2,4.8,0.9l11-7.6l8.8,2.3c-0.8,1.1-21,29.2-21,29.2l-15.2,1.3c-2,0.2-3.3,1.9-3.1,3.7c0.2,1.8,1.7,3.1,3.5,3.1h0.3   l16.6-1.4c0.9-0.1,1.8-0.5,2.4-1.3l8.5-10.3l12.1,8.2l-6.5,17.7c-0.7,1.8,0.3,3.8,2.1,4.4c0.4,0.2,0.8,0.2,1.2,0.2   c1.4,0,2.7-0.8,3.2-2.3l7.6-20.9c0.5-1.4,0.1-2.9-1-3.8l-8.7-7.2l7.1-12.1l3.6,5.5c0.7,1,1.7,1.5,2.9,1.5l14.9-0.8   c2,0,3.5-1.5,3.5-3.5S-504.5,350.6-506.5,350.6z M-579.7,361.3h20.1c1.2,0,2.1-0.9,2.1-2.1s-0.9-2.1-2.1-2.1h-20.1   c-1.2,0-2.1,0.9-2.1,2.1S-580.8,361.3-579.7,361.3z M-574.4,355.3h20.1c1.2,0,2.1-0.9,2.1-2.1c0-1.2-0.9-2.1-2.1-2.1h-20.1   c-1.2,0-2.1,0.9-2.1,2.1C-576.4,354.4-575.5,355.3-574.4,355.3z M-561.7,365.7c0-1.2-0.9-2.1-2.1-2.1h-20.1c-1.2,0-2.1,0.9-2.1,2.1   c0,1.2,0.9,2.1,2.1,2.1h20.1C-562.6,367.7-561.7,366.8-561.7,365.7z"/></g><text x="-589" y="426" fill="#000000" font-size="5px" font-weight="bold" font-family="'Helvetica Neue', Helvetica, Arial-Unicode, Arial, Sans-serif">Created by Vaibhav Radhakrishnan</text><text x="-589" y="431" fill="#000000" font-size="5px" font-weight="bold" font-family="'Helvetica Neue', Helvetica, Arial-Unicode, Arial, Sans-serif">from the Noun Project</text></svg>