<svg xmlns="http://www.w3.org/2000/svg" data-name="Layer 1" viewBox="0 0 64 80" x="0px" y="0px"><title>Ready for use</title><path d="M20,19.83a6,6,0,0,1-1.07,3.62,1,1,0,0,0,1.66,1.12A8,8,0,0,0,22,19.83,8.54,8.54,0,0,0,19.79,14,6.62,6.62,0,0,1,18,9.41,6.63,6.63,0,0,1,19.8,4.8l.15-.19a1,1,0,1,0-1.59-1.21l-.15.19A8.58,8.58,0,0,0,16,9.41a8.56,8.56,0,0,0,2.21,5.82A6.6,6.6,0,0,1,20,19.83Z"/><path d="M33,19.83a6,6,0,0,1-1.07,3.62,1,1,0,0,0,1.66,1.12A8,8,0,0,0,35,19.83,8.54,8.54,0,0,0,32.79,14,6.62,6.62,0,0,1,31,9.41,6.63,6.63,0,0,1,32.8,4.8l.15-.19a1,1,0,1,0-1.59-1.21l-.15.19A8.58,8.58,0,0,0,29,9.41a8.56,8.56,0,0,0,2.21,5.82A6.6,6.6,0,0,1,33,19.83Z"/><path d="M46,19.83a6,6,0,0,1-1.07,3.62,1,1,0,0,0,1.66,1.12A8,8,0,0,0,48,19.83,8.54,8.54,0,0,0,45.79,14,6.62,6.62,0,0,1,44,9.41,6.63,6.63,0,0,1,45.8,4.8l.15-.19a1,1,0,1,0-1.59-1.21l-.15.19A8.58,8.58,0,0,0,42,9.41a8.56,8.56,0,0,0,2.21,5.82A6.6,6.6,0,0,1,46,19.83Z"/><path d="M54,28H10a1,1,0,0,0-1,1V45A13,13,0,0,0,21.24,58v2a1,1,0,0,0,1,1H41.76a1,1,0,0,0,1-1V58A13,13,0,0,0,55,45V29A1,1,0,0,0,54,28ZM40.76,59H23.24V58H40.76ZM53,45A11,11,0,0,1,42,56H22A11,11,0,0,1,11,45V30H53Z"/><path d="M29.17,47.07a1,1,0,0,0,1.41,0l8.48-8.48a1,1,0,0,0-1.41-1.41l-7.78,7.78-3.54-3.54a1,1,0,0,0-1.41,1.41Z"/><text x="0" y="79" fill="#000000" font-size="5px" font-weight="bold" font-family="'Helvetica Neue', Helvetica, Arial-Unicode, Arial, Sans-serif">Created by Yoyon Pujiyono</text><text x="0" y="84" fill="#000000" font-size="5px" font-weight="bold" font-family="'Helvetica Neue', Helvetica, Arial-Unicode, Arial, Sans-serif">from the Noun Project</text></svg>