<svg xmlns="http://www.w3.org/2000/svg" xmlns:xlink="http://www.w3.org/1999/xlink" version="1.1" x="0px" y="0px" viewBox="0 0 64 80" style="enable-background:new 0 0 64 64;" xml:space="preserve"><path d="M40,2h-4h-1H19h-1h-4c-3.309,0-6,2.691-6,6v48c0,3.309,2.691,6,6,6h26c3.309,0,6-2.691,6-6V32.414l9.879-9.879  C56.602,21.812,57,20.851,57,19.829C57,17.717,55.282,16,53.172,16c-1.023,0-1.984,0.398-2.707,1.122v0L46,21.586V8  C46,4.691,43.309,2,40,2z M36,4h4c2.206,0,4,1.794,4,4v15.586l-2,2V9c0-1.654-1.346-3-3-3h-5.184C33.928,5.686,34,5.352,34,5  c0-0.551,0.448-1,1-1H36z M26,48h4c0.266,0,0.52-0.105,0.707-0.293L40,38.414V55c0,0.551-0.448,1-1,1H15c-0.552,0-1-0.449-1-1V9  c0-0.551,0.448-1,1-1h8h8h8c0.552,0,1,0.449,1,1v18.586L25.293,42.293C25.105,42.48,25,42.735,25,43v4C25,47.552,25.447,48,26,48z   M22,5c0-0.352-0.072-0.686-0.184-1h10.369C32.072,4.314,32,4.648,32,5c0,0.551-0.448,1-1,1h-8C22.448,6,22,5.551,22,5z M44,56  c0,2.206-1.794,4-4,4H14c-2.206,0-4-1.794-4-4V8c0-2.206,1.794-4,4-4h4h1c0.552,0,1,0.449,1,1c0,0.352,0.072,0.686,0.184,1H15  c-1.654,0-3,1.346-3,3v46c0,1.654,1.346,3,3,3h24c1.654,0,3-1.346,3-3V36.414l2-2V56z M51.879,18.536  C51.879,18.536,51.879,18.536,51.879,18.536C52.22,18.195,52.69,18,53.172,18C54.18,18,55,18.82,55,19.829  c0,0.488-0.19,0.948-0.535,1.293L29.586,46H27v-2.586L51.879,18.536z"/><path d="M27,39v-2H17c-0.553,0-1,0.448-1,1v13c0,0.552,0.447,1,1,1h20c0.553,0,1-0.448,1-1v-5h-2v4H18V39H27z"/><path d="M36,27h2v-2h-1v-2c0-5.177-3.954-9.446-9-9.949V11h-2v2.051c-5.046,0.503-9,4.773-9,9.949v2h-1v2h2H36z M19,23  c0-4.411,3.589-8,8-8s8,3.589,8,8v2H19V23z"/><rect x="16" y="29" width="19" height="2"/><text x="0" y="79" fill="#000000" font-size="5px" font-weight="bold" font-family="'Helvetica Neue', Helvetica, Arial-Unicode, Arial, Sans-serif">Created by dDara</text><text x="0" y="84" fill="#000000" font-size="5px" font-weight="bold" font-family="'Helvetica Neue', Helvetica, Arial-Unicode, Arial, Sans-serif">from the Noun Project</text></svg>